<svg id="Layer_1" data-name="Layer 1" xmlns="http://www.w3.org/2000/svg" viewBox="0 0 324.04 86"><defs><style>.cls-1{fill:#fff;fill-rule:evenodd;}</style></defs><title>logo-side</title><polygon class="cls-1" points="80.58 24.48 85.98 29.89 85.96 29.9 85.98 29.92 112.17 56.11 131.25 75.19 150.34 56.09 105.06 10.81 89.08 26.78 83.68 21.38 105.06 0 161.15 56.09 131.25 86 106.77 61.51 101.36 56.11 101.38 56.09 80.59 35.31 75.19 29.9 75.17 29.89 56.09 10.81 37 29.9 31.59 35.31 10.81 56.09 29.9 75.19 50.69 54.4 56.09 49 61.5 54.4 82.28 75.19 98.26 59.21 103.66 64.62 82.28 86 56.09 59.81 29.9 86 0 56.09 26.19 29.9 56.09 0 80.58 24.48"/><path class="cls-1" d="M505,375.5a2.26,2.26,0,0,1,.24-1,2.32,2.32,0,0,1,.68-.82,3.6,3.6,0,0,1,1.07-.55,4.45,4.45,0,0,1,1.41-.2,6.74,6.74,0,0,1,2.36.41,7.6,7.6,0,0,1,2.24,1.32l1-1.39a9.51,9.51,0,0,0-2.54-1.46,9,9,0,0,0-3.07-.48,6.42,6.42,0,0,0-2.1.33,5,5,0,0,0-1.66.92,4,4,0,0,0-1.1,1.38,4.09,4.09,0,0,0-.38,1.76,4.21,4.21,0,0,0,.32,1.73,3.44,3.44,0,0,0,1,1.28,6,6,0,0,0,1.68.93,16.56,16.56,0,0,0,2.39.69,15.83,15.83,0,0,1,2.07.57,4.57,4.57,0,0,1,1.26.66,2.07,2.07,0,0,1,.64.81,2.54,2.54,0,0,1,.19,1,2.43,2.43,0,0,1-1,2,4.13,4.13,0,0,1-2.59.75,7.31,7.31,0,0,1-2.94-.56,9.29,9.29,0,0,1-2.53-1.7l-1.12,1.33a10,10,0,0,0,3,1.91,9.64,9.64,0,0,0,3.5.62,7.29,7.29,0,0,0,2.19-.32,5,5,0,0,0,1.71-.92,4.07,4.07,0,0,0,1.12-1.44,4.24,4.24,0,0,0,.41-1.87,3.55,3.55,0,0,0-1.27-2.9,9.29,9.29,0,0,0-3.93-1.64,16.61,16.61,0,0,1-2.17-.59,4.75,4.75,0,0,1-1.32-.68,2,2,0,0,1-.66-.84,2.73,2.73,0,0,1-.18-1Zm-123.74,0a2.26,2.26,0,0,1,.24-1,2.35,2.35,0,0,1,.69-.82,3.48,3.48,0,0,1,1.07-.55,4.34,4.34,0,0,1,1.4-.2,6.7,6.7,0,0,1,2.36.41,7.6,7.6,0,0,1,2.24,1.32l1.05-1.39a9.51,9.51,0,0,0-2.54-1.46,8.92,8.92,0,0,0-3.07-.48,6.32,6.32,0,0,0-2.09.33,5.1,5.1,0,0,0-1.67.92,4,4,0,0,0-1.48,3.14,4.38,4.38,0,0,0,.32,1.73,3.44,3.44,0,0,0,1,1.28,6,6,0,0,0,1.68.93,16.94,16.94,0,0,0,2.39.69,15.4,15.4,0,0,1,2.07.57,4.81,4.81,0,0,1,1.27.66,2.16,2.16,0,0,1,.64.81,2.73,2.73,0,0,1,.18,1,2.4,2.4,0,0,1-1,2,4.11,4.11,0,0,1-2.59.75,7.31,7.31,0,0,1-2.94-.56,9.44,9.44,0,0,1-2.53-1.7l-1.12,1.33a9.92,9.92,0,0,0,3,1.91,9.56,9.56,0,0,0,3.5.62,7.17,7.17,0,0,0,2.18-.32,5.15,5.15,0,0,0,1.72-.92,4,4,0,0,0,1.11-1.44,4.11,4.11,0,0,0,.41-1.87,3.58,3.58,0,0,0-1.26-2.9,9.4,9.4,0,0,0-3.94-1.64,16,16,0,0,1-2.16-.59,4.68,4.68,0,0,1-1.33-.68,2.16,2.16,0,0,1-.66-.84,2.73,2.73,0,0,1-.18-1Zm28.78,4a8.57,8.57,0,0,0-.59-3.16,7.67,7.67,0,0,0-1.65-2.62,8,8,0,0,0-2.56-1.8,8.17,8.17,0,0,0-3.32-.66,8,8,0,0,0-5.91,2.49,8.27,8.27,0,0,0-1.66,2.63,8.41,8.41,0,0,0-.59,3.16,8.6,8.6,0,0,0,.58,3.16,7.85,7.85,0,0,0,4.21,4.41,8.17,8.17,0,0,0,3.32.66,8,8,0,0,0,5.91-2.48,8.21,8.21,0,0,0,1.66-2.64,8.37,8.37,0,0,0,.6-3.15Zm-1.87,0a7.07,7.07,0,0,1-.47,2.57,6.51,6.51,0,0,1-1.29,2.08,5.8,5.8,0,0,1-2,1.4,6.31,6.31,0,0,1-5,0,6.47,6.47,0,0,1-2-1.41,6.28,6.28,0,0,1-1.31-2.1,7.41,7.41,0,0,1,0-5.14,6.56,6.56,0,0,1,1.29-2.09,6,6,0,0,1,2-1.4,6.17,6.17,0,0,1,2.52-.51,6,6,0,0,1,2.52.52,6.29,6.29,0,0,1,3.31,3.51,7.16,7.16,0,0,1,.47,2.58Zm5.67,8h10.79v-1.67h-9V371.53h-1.8v16Zm26.7-16h-1.8v9.28a5.38,5.38,0,0,1-1.3,3.94,4.71,4.71,0,0,1-3.51,1.32,4.63,4.63,0,0,1-3.59-1.39,5.63,5.63,0,0,1-1.29-4v-9.16h-1.8v9.28a8.55,8.55,0,0,0,.48,3,5.93,5.93,0,0,0,1.35,2.18,5.6,5.6,0,0,0,2.1,1.32,8.42,8.42,0,0,0,5.43,0,5.62,5.62,0,0,0,2.1-1.33,6.06,6.06,0,0,0,1.35-2.21,9,9,0,0,0,.48-3.08v-9.14Zm10.29,1.66h5.35v-1.66H443.66v1.66H449v14.3h1.81v-14.3Zm8.91-1.66v16h1.8v-16Zm22,8a8.77,8.77,0,0,0-.58-3.16,7.85,7.85,0,0,0-1.66-2.62,8,8,0,0,0-2.56-1.8,8.59,8.59,0,0,0-6.65,0,7.91,7.91,0,0,0-2.57,1.81,8.3,8.3,0,0,0-1.67,2.63,8.83,8.83,0,0,0,0,6.32,8.09,8.09,0,0,0,1.65,2.62,8,8,0,0,0,2.57,1.79,8.62,8.62,0,0,0,6.64,0,7.85,7.85,0,0,0,2.58-1.81,8.41,8.41,0,0,0,1.67-2.64,8.56,8.56,0,0,0,.59-3.15Zm-1.87,0a7.07,7.07,0,0,1-.47,2.57,6.51,6.51,0,0,1-1.29,2.08,5.7,5.7,0,0,1-2,1.4,6.31,6.31,0,0,1-5,0,6.31,6.31,0,0,1-2-1.41,6.12,6.12,0,0,1-1.31-2.1,7.26,7.26,0,0,1,0-5.14,6.72,6.72,0,0,1,1.28-2.09,6,6,0,0,1,2-1.4,6.09,6.09,0,0,1,2.51-.51,6,6,0,0,1,2.52.52,6.22,6.22,0,0,1,2,1.42,6.33,6.33,0,0,1,1.31,2.09,7.16,7.16,0,0,1,.47,2.58Zm17.42,4.79-10.06-12.79h-1.68v16h1.75V374.4l10.31,13.09h1.43v-16h-1.75Z" transform="translate(-190.48 -317)"/><polygon class="cls-1" points="310.13 15.24 304.99 15.24 291.09 47.06 296.77 47.06 300.02 39.43 302.06 34.51 307.47 21.87 312.93 34.51 314.96 39.43 318.17 47.06 324.04 47.06 310.13 15.24"/><polygon class="cls-1" points="280.16 24.4 280.16 47.06 285.67 47.06 285.67 15.46 279.76 15.46 270.14 30.4 260.53 15.46 254.62 15.46 254.62 47.06 260.12 47.06 260.12 24.49 270.01 39.3 270.19 39.3 280.16 24.4"/><polygon class="cls-1" points="235.3 15.24 230.15 15.24 216.25 47.06 221.94 47.06 225.19 39.43 227.22 34.51 232.63 21.87 238.09 34.51 240.13 39.43 243.33 47.06 249.2 47.06 235.3 15.24"/><polygon class="cls-1" points="206.5 34.47 219.05 15.46 212.68 15.46 203.74 29.46 194.9 15.46 188.35 15.46 200.9 34.6 200.9 47.06 206.5 47.06 206.5 34.47"/></svg>